<?xml version="1.0" encoding="UTF-8" standalone="no"?>
<svg
   xmlns:dc="http://purl.org/dc/elements/1.1/"
   xmlns:cc="http://creativecommons.org/ns#"
   xmlns:rdf="http://www.w3.org/1999/02/22-rdf-syntax-ns#"
   xmlns:svg="http://www.w3.org/2000/svg"
   xmlns="http://www.w3.org/2000/svg"
   width="69.817665mm"
   height="26.979614mm"
   viewBox="0 0 69.817665 26.979614"
   version="1.1"
   id="svg1486">
  <defs
     id="defs1480" />
  <metadata
     id="metadata1483">
    <rdf:RDF>
      <cc:Work
         rdf:about="">
        <dc:format>image/svg+xml</dc:format>
        <dc:type
           rdf:resource="http://purl.org/dc/dcmitype/StillImage" />
        <dc:title></dc:title>
      </cc:Work>
    </rdf:RDF>
  </metadata>
  <g
     id="layer1"
     transform="translate(-70.9245,-134.67686)">
    <g
       id="Layer1000"
       transform="matrix(0.26458333,0,0,0.26458333,27.129238,36.791822)">
      <path
         d="m 311.4726,469.4278 c 0.739,-0.1392 1.6217,0.5205 1.4329,1.3278 -0.1174,1.0961 -1.6685,1.3056 -2.3301,0.5686 -0.6185,-0.7231 -0.0323,-1.8672 0.8972,-1.8964 z m -58.3237,-0.005 c 0.858,-0.1936 1.9199,0.597 1.5324,1.5316 -0.3209,0.9453 -1.688,1.0443 -2.285,0.32 -0.5823,-0.6528 -0.0383,-1.6812 0.7526,-1.8516 z m -53.9283,-0.006 c 0.8008,-0.1352 1.7198,0.7172 1.3311,1.5276 -0.2857,0.963 -1.6843,1.0511 -2.2722,0.3297 -0.6744,-0.7047 0.0371,-1.8624 0.9411,-1.8573 z m 83.8188,-5.0136 c 0.7163,-0.01 1.4357,-0.0351 2.154,0 0.68,1.6472 1.3485,3.3069 2.0041,4.9655 0.0332,0 0.0998,0 0.133,0 0.6332,-1.6674 1.3252,-3.3135 2.0208,-4.9556 0.5882,0.0363 1.5131,-0.1652 1.923,0.0814 -0.9354,2.3867 -1.9514,4.754 -2.9642,7.1124 -0.595,0.1712 -1.2183,0.1213 -1.8173,0.0587 -0.3328,0.134 -0.4099,-0.3033 -0.4952,-0.5264 -1.0295,-2.2255 -1.9562,-4.4989 -2.9582,-6.736 z m -3.0113,-0.003 c 0.6469,-0.0168 1.296,-0.0168 1.9454,0 0.0119,2.4406 0.007,4.8824 0.003,7.3238 -0.6461,-0.1253 -1.3113,0.0423 -1.9613,-0.0243 0.0178,-2.4339 -0.006,-4.8666 0.0127,-7.2995 z m -37.2543,-0.0655 c 0.3569,-0.009 1.0695,-0.0275 1.4255,-0.0363 0.004,0.5834 0.0307,1.1724 -0.003,1.7586 -1.0715,-0.2211 -2.6059,-0.0646 -2.8956,1.2067 -0.3073,1.459 -0.0323,2.9838 -0.136,4.4683 -0.6469,-0.0802 -1.2978,0.0292 -1.9446,8e-4 -0.0108,-2.4446 -0.0108,-4.8889 0,-7.3326 0.6457,-0.0168 1.2937,-0.0168 1.9414,0 0.006,0.2721 0.0187,0.8161 0.0247,1.0882 0.3679,-0.5723 0.9298,-0.9873 1.5874,-1.1537 z m 62.6278,-0.097 c 1.2064,-0.1428 2.5376,0.5783 2.8162,1.8105 0.3651,1.8281 0.1488,3.8098 0.1165,5.618 -0.591,0.1293 -1.2603,0.0726 -1.8847,0.0578 -0.1165,-1.6528 0.2182,-3.3672 -0.1996,-4.9838 -0.3798,-1.1197 -1.9573,-1.0659 -2.6229,-0.2682 -0.8405,1.5871 -0.214,3.5297 -0.4195,5.2571 -0.6177,-0.1029 -1.4015,0.222 -1.9378,-0.1176 0.0459,-2.3995 -0.1587,-4.8214 0.1066,-7.2085 0.5746,-0.0125 1.156,-0.0351 1.7331,-8e-4 0.005,0.2721 0.0156,0.8152 0.0207,1.0873 0.4961,-0.7908 1.3397,-1.2382 2.2714,-1.2518 z m -10.3694,1.4681 c -0.7231,0.1565 -1.3249,0.8688 -1.3113,1.6166 1.2713,0.0264 2.5452,0.004 3.8194,0.003 0.2409,-1.3356 -1.4531,-1.9893 -2.5081,-1.6194 z m 0.688,-1.4581 c 1.1999,-0.095 2.5061,0.3756 3.1923,1.415 0.5743,0.8473 0.722,2.0098 0.6166,2.971 -1.8939,0.1673 -3.8795,0.004 -5.8074,0.0743 0.0462,1.2135 1.5738,1.9562 2.6581,1.5862 0.6026,-0.0958 1.0117,-0.5451 1.4533,-0.9138 0.4697,0.3101 0.9198,0.6548 1.3697,0.9972 -1.7096,2.2459 -5.7217,1.8867 -7.0685,-0.5794 -0.5215,-1.1313 -0.6066,-2.5815 0.1069,-3.653 0.7211,-1.1971 2.0883,-1.8956 3.479,-1.8975 z m -17.7197,-0.009 c 1.1098,-0.2665 0.7124,1.0842 0.7418,1.8122 -1.0734,-0.2946 -2.5443,0.049 -2.8703,1.2447 -0.1401,1.4709 -0.0117,2.9585 -0.0635,4.437 -0.6528,0.0284 -1.2986,-0.0822 -1.9466,-8e-4 -0.009,-2.4446 -0.0105,-4.8881 0.001,-7.3318 0.646,-0.0168 1.2937,-0.0168 1.9425,0 0.005,0.271 0.0145,0.8141 0.0193,1.0862 0.421,-0.7877 1.2988,-1.2223 2.1756,-1.2475 z m -43.8355,4.2225 c -0.8161,0.0156 -2.4514,0.229 -2.024,1.4385 0.838,1.1812 3.2539,0.55 3.159,-1.0031 0.3328,-0.8629 -0.7455,-0.3844 -1.135,-0.4354 z m -0.4884,-4.2041 c 1.3867,-0.176 3.1118,0.4601 3.422,1.9621 0.1352,1.8253 0.0325,3.6729 0.0549,5.5078 -0.5567,-0.1129 -1.18,0.1496 -1.6911,-0.0599 -0.3668,-0.1037 0.3124,-1.0128 -0.1301,-0.8838 -1.0823,1.4034 -3.3741,1.4015 -4.6639,0.2976 -1.0179,-0.9589 -0.6009,-2.8899 0.6857,-3.3919 1.2765,-0.5204 2.6884,-0.538 4.0448,-0.5635 0.2857,-1.099 -1.0981,-1.6393 -1.9593,-1.4641 -0.7064,-0.1026 -1.2546,0.3895 -1.8397,0.6656 -0.3866,-0.2427 -0.7104,-0.5803 -0.9873,-0.9366 0.7838,-0.8348 1.9729,-1.0707 3.064,-1.1333 z m -12.6321,-0.0156 c 0.7538,0.0383 1.5503,0.3062 1.9888,0.9649 0.093,0.0607 0.1624,0.3297 0.2894,0.2279 0.9034,-1.4043 3.026,-1.55 4.3254,-0.6312 0.7909,0.6528 0.9153,1.7665 0.9026,2.7215 -0.0148,1.3995 0.0156,2.8009 -0.0108,4.2012 -0.6256,-0.0989 -1.3017,0.1205 -1.883,-0.0578 -0.1908,-1.5236 0.0374,-3.1462 -0.0998,-4.699 -0.0771,-0.9113 -1.2311,-1.33 -1.9914,-0.9777 -0.5658,0.1537 -0.8141,0.7631 -0.9706,1.277 -0.0969,1.4845 -0.002,2.9739 -0.043,4.4615 -0.65,0.0116 -1.2989,0.0116 -1.9466,-0.002 -0.0598,-1.6381 0.0851,-3.295 -0.0706,-4.9204 -0.3308,-1.4317 -2.6158,-1.1205 -2.9055,0.1956 -0.1565,1.5579 -0.009,3.1482 -0.0694,4.72 -0.6449,-0.1213 -1.3082,0.0419 -1.9582,-0.0235 0.0176,-2.4339 -0.006,-4.8666 0.0128,-7.2995 0.6134,-0.007 1.231,-0.0332 1.8456,0.004 0.006,0.2486 0.0187,0.7458 0.0255,0.9941 0.5216,-0.9059 1.5687,-1.2064 2.5588,-1.1565 z m -28.9624,1.4601 c -0.7262,0.2075 -1.2342,0.8847 -1.3184,1.6215 1.3093,0.0127 2.6178,0.0127 3.9271,0 0.0862,-1.3281 -1.4669,-2.0237 -2.6087,-1.6215 z m 0.5879,-1.4649 c 1.2351,-0.1108 2.6198,0.318 3.3134,1.4051 0.603,0.8895 0.7175,2.0053 0.654,3.0532 -1.9505,0.0148 -3.9008,0 -5.851,0.001 0.2514,2.014 3.0521,2.1645 4.1255,0.7123 0.4649,0.2849 1.0559,0.6146 1.3448,1.0451 -1.4414,1.7674 -4.305,1.8134 -6.0576,0.4884 -1.556,-1.1967 -1.8397,-3.6589 -0.6047,-5.1817 0.6792,-1.0227 1.9327,-1.372 3.0756,-1.5236 z m -13.7954,4.2256 c -0.6783,0.0958 -1.4904,-0.002 -2.0247,0.5029 -0.4717,0.2661 -0.3033,0.9904 0.1184,1.2123 1.137,0.7881 3.0053,-0.0136 2.9407,-1.4785 0.0539,-0.544 -0.7534,-0.2095 -1.0344,-0.2367 z m -0.6871,-4.2032 c 1.285,-0.1154 2.9829,0.3073 3.3557,1.7322 0.4002,1.8142 0.1703,3.6973 0.2231,5.5418 -0.2466,0.5156 -1.1988,0.0431 -1.6538,0.1967 -0.5567,-0.0147 0.1557,-1.0423 -0.2534,-0.9346 -1.0335,1.3212 -3.1266,1.3572 -4.4546,0.457 -0.9414,-0.6489 -0.9845,-2.0433 -0.3719,-2.9279 1.241,-1.2898 3.2519,-1.1126 4.8792,-1.1988 0.2458,-0.9561 -0.82,-1.603 -1.6537,-1.4905 -0.7378,-0.0587 -1.512,0.2398 -2.0679,0.7243 -0.3639,-0.2917 -0.7055,-0.6146 -1.0686,-0.9063 0.7146,-0.9014 1.9769,-1.1157 3.0659,-1.1939 z m 68.3714,-1.9162 c 0.6477,-0.0145 1.2966,-0.0136 1.9474,0.002 0.0147,0.6804 -0.009,1.3624 0.01,2.0455 0.6761,0.0136 1.3544,-0.0139 2.0333,0.0145 0.1899,0.4856 0.1145,1.0355 0.1069,1.5511 -0.7155,0.0187 -1.429,-0.0164 -2.1413,0.01 0.0176,1.2263 -0.0587,2.463 0.0235,3.6865 0.3149,0.8376 1.3085,0.6125 2.0169,0.5128 0.0958,0.449 0.0119,0.9079 0.1009,1.3563 -1.0021,0.5656 -2.4143,0.4706 -3.3999,-0.098 -1.3141,-1.4794 -0.451,-3.6717 -0.7072,-5.4587 -0.5208,-0.004 -1.0395,-0.007 -1.5571,-0.0105 -0.0159,-0.5199 -0.0148,-1.0383 8e-4,-1.5551 0.5179,-0.004 1.0367,-0.007 1.5571,-0.01 0.0136,-0.684 -0.01,-1.366 0.009,-2.0463 z m 17.3242,0.3926 c -0.0156,2.3731 -0.0156,4.7491 0.002,7.1243 1.7654,0.0723 3.9076,0.2004 5.2571,-1.1784 1.2104,-1.3858 1.1841,-3.8732 -0.2721,-5.0771 -1.4355,-1.1027 -3.299,-0.8972 -4.987,-0.8688 z m -2.054,-1.7615 c 2.6226,0.1653 5.5301,-0.5618 7.9186,0.8748 2.7766,1.5304 3.2151,5.8521 0.9788,8.0266 -2.3014,2.2986 -5.9156,1.8623 -8.8398,1.7917 -0.1486,-3.52 -0.036,-7.137 -0.0576,-10.6931 z m 18.8147,-0.0714 c 0.7152,-0.2322 1.6812,0.3209 1.5353,1.1449 0.045,1.1253 -1.819,1.3799 -2.3213,0.4598 -0.4431,-0.6772 0.051,-1.4718 0.786,-1.6047 z m -72.4649,0.9365 c 1.8046,-1.5003 4.7455,-1.563 6.5517,-0.0617 -0.2318,0.5989 -0.9657,0.9992 -1.3719,1.5256 -0.9729,-1.0511 -3.1383,-1.3162 -3.8693,0.1408 -0.1624,0.5922 0.2035,1.2127 0.7631,1.429 1.2067,0.5499 2.6132,0.6848 3.6924,1.5049 1.1293,0.9258 1.1001,2.5894 0.5371,3.8177 -0.6241,1.0273 -1.7849,1.4905 -2.9043,1.734 h -1.7703 c -1.0068,-0.2172 -2.1313,-0.5647 -2.7842,-1.3788 0.19,-0.5922 0.9658,-0.9014 1.3729,-1.3544 0.646,0.2534 1.1814,0.9521 1.9485,0.9777 0.8807,0.083 2.1206,-0.1891 2.3536,-1.1824 0.182,-0.7319 -0.409,-1.281 -1.0168,-1.5304 -1.2107,-0.5128 -2.613,-0.646 -3.6198,-1.5659 -1.0834,-1.0822 -0.9757,-3.0197 0.1173,-4.0561 z m -42.0213,0.8326 c 1.4034,-2.4435 5.125,-2.5033 7.2073,-0.908 -0.3736,0.5412 -1.004,0.9658 -1.4717,1.459 -0.8552,-0.8112 -2.1832,-1.0363 -3.242,-0.498 -0.6675,0.3484 -0.8651,1.3484 -0.2681,1.8485 1.0539,0.8016 2.4817,0.8005 3.6022,1.4856 1.41,0.6214 1.8318,2.5061 1.1792,3.8186 -0.4393,1.2506 -1.7889,1.7798 -2.9789,2.052 h -1.7821 c -1.0676,-0.1741 -2.1087,-0.5959 -2.8781,-1.38 v -0.0654 c 0.5137,-0.453 0.9582,-0.9941 1.5356,-1.366 0.8747,1.0899 2.552,1.4334 3.7312,0.6417 0.6608,-0.4549 0.6735,-1.4825 0.0431,-1.9669 -1.2869,-0.8229 -2.9682,-0.7838 -4.1374,-1.8281 -0.8935,-0.8002 -1.0336,-2.2408 -0.5403,-3.293 z m 20.2504,-2.5393 c 0.6616,-0.0187 1.4267,-0.1624 2.05,0.0216 0.0352,0.4657 0.1038,1.1273 -0.1426,1.5635 -0.5845,-0.0567 -1.2549,-0.2151 -1.7206,0.2537 -0.4365,0.7181 -0.1488,1.6254 -0.2202,2.4191 0.5833,0.0176 1.1687,-0.0195 1.7526,0.0117 0.0139,0.5167 0.0139,1.0343 -8e-4,1.5539 -0.5843,0.0179 -1.1685,-0.0196 -1.7518,0.0119 -0.0264,1.9199 0.0206,3.841 -0.0137,5.7611 -0.648,0.0125 -1.2954,0.0125 -1.9425,-0.001 -0.0176,-1.7938 0,-3.5867 -0.002,-5.3793 0.0558,-0.8161 -1.2252,-0.1879 -1.6657,-0.3943 0.1165,-0.5139 -0.0263,-1.0395 -0.003,-1.5562 0.553,-0.0176 1.1067,0.0108 1.6608,-0.0108 0.0431,-1.2467 -0.2613,-2.9475 0.8847,-3.8086 0.3405,-0.2183 0.7268,-0.3436 1.1146,-0.4462 z M 350.6854,432.102 c 0.0595,0.2682 -0.2736,0.968 0.1893,0.8827 0.4071,0.0267 1.2336,0.006 0.9706,-0.6684 -0.3079,-0.2993 -0.7798,-0.2231 -1.1599,-0.2143 z m -0.7654,-0.5763 c 0.8753,0.0958 2.2008,-0.4014 2.7556,0.5392 0.3262,0.5774 -0.135,0.9465 -0.542,1.2087 0.5672,0.3268 0.5655,1.0627 0.7007,1.6302 -0.3677,-0.0156 -1.0123,0.1017 -0.9763,-0.4598 -0.004,-0.652 -0.5601,-1.0012 -1.1743,-0.8799 -0.0236,0.4539 0.0107,0.9131 -0.0145,1.3692 -0.362,-0.1421 -1.1815,0.3072 -0.8734,-0.4845 0.1423,-0.9354 -0.2576,-2.0718 0.1242,-2.9231 z m 0.9941,-0.9422 c -1.8658,0.0527 -3.1068,2.4239 -2.0188,3.9866 1.057,1.8182 4.2162,1.554 4.8285,-0.5031 0.7999,-1.73 -1.0012,-3.8027 -2.8097,-3.4835 z m -0.1981,-0.6851 c 2.2552,-0.4709 4.7262,1.7319 3.9968,4.0756 -0.6664,2.7763 -4.6865,3.3803 -6.385,1.2617 -0.7115,-0.8436 -1.0123,-2.0886 -0.5692,-3.1221 0.4144,-1.2455 1.6588,-2.1302 2.9574,-2.2152 z M 331.8307,411.012 c -2.5444,0.0442 -5.0281,1.2773 -6.584,3.2933 -2.8497,3.554 -2.653,9.1899 0.4745,12.5115 3.0336,3.3279 8.6567,3.6715 12.1779,0.9255 3.1726,-2.3955 4.2852,-6.9227 3.0073,-10.6256 -1.1205,-3.8362 -5.1262,-6.4528 -9.0757,-6.1047 z m -1.0774,-6.9469 c 4.5739,-0.4482 9.3543,0.8847 12.899,3.8421 3.2508,2.643 5.1888,6.7189 5.4842,10.8731 0.5386,5.1786 -1.4913,10.6336 -5.5647,13.949 -7.1232,5.8745 -19.0514,5.0125 -24.8054,-2.3839 -3.4673,-4.4133 -4.1876,-10.6305 -2.3525,-15.8701 2.05,-6.0094 8.0929,-10.0825 14.3394,-10.4102 z m -21.9209,0.004 c 1.328,-0.1676 2.6912,-0.0794 3.9586,0.3679 0.1173,2.4982 -0.1537,5.023 0.1165,7.5078 -1.5268,-0.2828 -3.0719,-0.7103 -4.6446,-0.553 -1.9658,0.142 -3.9594,0.862 -5.3215,2.3292 -1.4162,1.5551 -2.1696,3.6601 -2.1744,5.7541 -10e-4,5.4459 0.01,10.893 -0.005,16.3389 -2.5728,0.003 -5.1475,0.0176 -7.7191,-0.004 -0.0215,-10.1089 0.0173,-20.2189 -0.0198,-30.3279 0.1273,-0.2083 -0.2259,-0.6009 0.0383,-0.7693 2.5667,-0.0244 5.1358,-0.0204 7.7025,-0.005 0.0207,1.6325 -0.0127,3.2647 0.0108,4.896 0.0391,-0.01 0.1174,-0.0295 0.1568,-0.0391 1.4179,-3.0524 4.5329,-5.2583 7.901,-5.4958 z m -38.3633,5.7588 c -1.9219,0.0998 -3.882,0.7861 -5.2168,2.2167 -1.2977,1.3612 -2.1102,3.202 -2.2598,5.076 5.2857,0.0128 10.5709,0.009 15.8567,0.002 -0.0726,-1.8054 -0.6197,-3.6357 -1.8479,-4.9966 -1.6458,-1.7654 -4.1834,-2.427 -6.5322,-2.2981 z m 0.002,-5.7628 c 5.0281,-0.5922 10.5123,1.4355 13.267,5.8246 2.5591,3.8226 3.0285,8.6225 2.833,13.1046 -7.8591,0.0156 -15.7193,-0.007 -23.5775,0.0108 0.1732,3.7655 3.4682,7.0177 7.2122,7.27 2.9194,0.3727 6.0185,-0.6313 8.0816,-2.7479 0.4881,-0.4071 0.856,-1.0511 1.4337,-1.2969 1.8485,1.3388 3.6275,2.789 5.4859,4.121 -2.8312,3.6346 -7.2317,5.9539 -11.8372,6.1694 -5.4941,0.447 -11.3371,-1.66 -14.7926,-6.0665 -3.6042,-4.49 -4.3129,-10.9301 -2.336,-16.2626 2.1421,-5.8666 8.0833,-9.7977 14.2299,-10.1265 z m -38.7547,6.9372 c -2.0735,0.1046 -4.121,0.8592 -5.6857,2.2363 -1.6932,1.5256 -2.6481,3.7488 -2.8293,6.0009 -0.4952,4.1491 2.253,8.4402 6.3238,9.5375 3.7559,1.1457 8.4328,-0.0726 10.5463,-3.5504 2.5328,-4.036 1.7107,-10.207 -2.465,-12.8404 -1.7603,-1.0579 -3.8466,-1.5279 -5.8901,-1.3839 z m -2.7383,-6.9332 c 4.3912,-0.51 9.3595,0.8883 11.9645,4.6746 0.1653,0.2262 0.2877,0.4952 0.5091,0.6792 0.0448,-1.5353 -0.0198,-3.0728 0.0252,-4.6083 2.4367,-0.1956 4.9655,-0.1948 7.4169,0.003 0.0215,9.6171 0.001,19.2328 0.0108,28.8485 -0.099,3.1453 -0.5851,6.3453 -1.9443,9.2098 -1.0602,2.2147 -2.6473,4.2139 -4.7123,5.5672 -2.3142,1.601 -5.0936,2.3964 -7.8687,2.6844 -6.3893,0.682 -13.4147,-0.4473 -18.3481,-4.8589 1.3263,-2.2076 3.073,-4.2981 4.6074,-6.4207 1.4942,1.3731 3.2009,2.5795 5.0808,3.3939 2.8293,1.1282 6.0225,1.3972 8.9935,0.6996 1.967,-0.4893 3.9152,-1.5843 4.896,-3.4231 1.5971,-2.6286 1.5117,-5.8638 1.4542,-8.824 -2.7527,3.4163 -7.369,4.8314 -11.6357,4.4408 -5.7316,-0.3093 -11.0554,-4.2588 -12.9489,-9.6872 -1.9474,-5.3688 -1.3465,-11.7697 1.9573,-16.4962 2.378,-3.4469 6.4001,-5.5596 10.5423,-5.8824 z m -39.9427,-4.1553 c -2.3595,6.1251 -4.7344,12.2473 -7.0772,18.3792 4.7032,0.0168 9.4073,0.0119 14.1106,0.002 -1.8908,-5.2021 -3.9388,-10.3666 -5.8649,-15.5636 -0.413,-0.9142 -0.595,-2.0367 -1.1685,-2.8176 z m -3.2343,-9.885 c 2.3635,-0.007 4.7307,-0.0332 7.092,0.011 6.2376,14.6163 12.5691,29.2026 18.8461,43.8052 0.2416,0.6585 0.6526,1.2683 0.7702,1.967 -3.0923,0.005 -6.1857,0.0244 -9.2772,-0.01 -1.4358,-3.4742 -2.8225,-6.9699 -4.2687,-10.4369 -6.6019,-0.0275 -13.2083,-0.0323 -19.8091,8e-4 -1.4315,3.4606 -2.7175,6.9823 -4.1686,10.4341 -3.0251,0.0371 -6.0508,0.0184 -9.0757,0.0105 3.3721,-7.9835 6.9089,-15.9344 10.3468,-23.9032 3.2,-7.2819 6.3158,-14.6137 9.5442,-21.8789 z"
         style="fill:#a2a1a5;fill-rule:evenodd"
         id="path2067" />
      <path
         d="m 349.086,369.9592 10.3386,19.9117 7.3576,14.7297 22.7174,45.9734 39.9036,-80.6148 z"
         style="fill:#ffffff;fill-rule:evenodd"
         id="path2069" />
      <path
         d="m 349.086,369.9592 10.3386,19.9117 69.9786,-19.9117 -62.621,34.6414 22.7174,45.9734 39.9036,-80.6148 z"
         style="fill:#e73c47;fill-rule:evenodd"
         id="path2071" />
    </g>
  </g>
</svg>
