<svg xmlns="http://www.w3.org/2000/svg" viewBox="0 0 494 117" xmlns:xlink="http://www.w3.org/1999/xlink">
  <path fill="#0076C0" d="M479.1 94.2c-3.2 0-5.44-2.23-5.44-5.55 0-3.31 2.27-5.58 5.44-5.58 3.21 0 5.44 2.25 5.44 5.58-.01 3.31-2.28 5.55-5.44 5.55zm0-10.48c-2.59 0-4.65 1.77-4.65 4.93 0 3.13 2.06 4.9 4.65 4.9 2.61 0 4.67-1.77 4.67-4.9 0-3.16-2.08-4.93-4.67-4.93zm1.61 7.9l-1.84-2.63h-.6v2.54h-1.06v-6.15h1.87c1.3 0 2.16.64 2.16 1.79 0 .88-.48 1.46-1.25 1.7l1.78 2.51-1.06.24zm-1.64-5.29h-.8v1.82h.76c.69 0 1.13-.28 1.13-.91-.01-.6-.39-.91-1.09-.91zM191.21 26.8l-41.93 67.4h14.25s10.34-16.78 10.7-17.35h24.06l.01 17.36h13.53V26.8h-20.62zm7.06 38.11h-16.54c1.03-1.64 16.54-26.84 16.54-26.84v26.84zm23.16-38.11h13.15v67.41h-13.15zm22.72 0h13.13v67.41h-13.13zm42.07 35.57c-7.15-1.87-8.65-2.91-8.46-5.89.15-2.7 2.35-4.25 6.03-4.25 4.54 0 10.1 1.6 14.88 4.28l.75.43 1.81-11.25-.43-.2c-4.9-2.24-10.77-3.43-17.01-3.43-6 0-11.11 1.85-14.4 5.21-2.61 2.68-3.95 6.14-3.88 9.99.23 10.39 5.18 13.33 16.92 16.35 7.76 1.91 9.34 3.05 9.28 6.75-.04 3.32-2.03 4.58-7.3 4.58-5.52 0-11.74-2.03-17.14-5.56l-.78-.52-1.82 11.29.39.22c4.2 2.31 11.39 4.74 18.96 4.74 7.34 0 12.76-1.74 16.11-5.13 2.61-2.66 3.9-6.25 3.84-10.71-.2-11.17-5.83-13.83-17.75-16.9zm49.65 20.48l-.68.18c-.9.25-2.05.38-3.61.38-3.9 0-5.71-1.76-5.71-5.56V53.98h9.64L335.7 43h-9.82V26.79h-12.93V43h-6.76v10.98h6.76v25.85c0 10.24 5.34 15.24 16.37 15.24 3.56 0 5.74-.41 7.67-.83l.59-.11-1.71-11.28zm27.99-40.9c-8.18 0-14.35 1.99-19.26 3.92l-.47.18 1.69 10.81.74-.32c5.89-2.6 10.88-3.82 15.74-3.82 5.18 0 7.62 2.14 7.62 6.76v1.32c-19.42 2-28.87 8.62-28.87 20.26 0 8.6 5.57 14.14 14.21 14.14 5.98 0 10.94-2.18 15.52-6.63.25 1.49.92 5.64.92 5.64h11.36V59.12c-.03-11.7-6.11-17.17-19.2-17.17zm-4.55 42.99c-3.24 0-5.24-1.98-5.24-5.17 0-5.67 5.47-9.38 15.83-10.77v11.1c-3.21 3.15-6.86 4.84-10.59 4.84zm57.45-2.09l-.67.18c-.9.25-2.06.38-3.59.38-3.91 0-5.74-1.76-5.74-5.56V53.98h9.66l.17-10.98h-9.84V26.79H393.8V43h-6.72v10.98h6.72v25.85c0 10.24 5.38 15.24 16.41 15.24 3.55 0 5.83-.42 7.67-.83l.58-.11-1.7-11.28zm45.08-3.95c-5.88 4.08-10.69 5.84-16.13 5.84-7.06 0-11.44-4.78-12.19-13.09h30.64l.13-3.5c0-17.35-7.21-26.17-21.46-26.2-6.26-.02-11.39 1.95-15.25 5.82-4.71 4.68-7.19 11.96-7.19 20.98 0 16.33 9.23 26.45 24.03 26.45 7.23 0 13.79-2.02 19.5-5.95l.32-.21-1.6-10.71-.8.57zM433.7 62.98c.59-7.34 3.79-11.56 8.84-11.56 6.8 0 8.6 6.13 8.87 11.56H433.7zM72.4 3.46c-38.18 0-69.26 23.58-69.26 52.58 0 28.98 31.07 54.41 69.26 54.41 38.19 0 69.25-25.43 69.25-54.41.01-29-31.06-52.58-69.25-52.58zm.01 103.4c-33.06 0-59.96-23.72-59.96-50.76 0-27.05 26.9-49.05 59.96-49.05 33.07 0 59.96 22 59.96 49.05 0 27.04-26.89 50.76-59.96 50.76z"/>
  <defs>
    <path id="a" d="M59.19 78.67l1.19 1.21c0 .01 2.4 1.34 2.4 1.34l2.27 1.24.29.16 1.67.93 2.82 1.54c.17.05.51.05.51.05l3.62-.23c2.08-.04 4.5 0 6.13.74 1.79.92 1.18 2.58 1.18 2.58s1.85-1.32 1.5-2.89c-.18-1.33-1.78-3.08-7.06-3.39-1.66-.1-4.16.13-4.16.13h-.23c0-.04-2.37-1.56-2.37-1.56l-.99-.57c-.14-.06-3.28-1.72-3.28-1.72s-1.99-.78-2-.79c0-.06-1.78-2.55-1.78-2.55l-.65-.92-1.9-2.74-.81-1.19c-.05-.07-1.09-1.68-1.09-1.68.09.02 1.08-1.5.97-3.12-.14.22-.24.27-.98.91-.75.61-2.97 1.61-4.46 2l-.67.18 5.3 6.96 2.58 3.38zm8.7-3.94l.36.46c.15.13 2.39 1.02 2.39 1.02 1.5.61 3.55 1.55 4.5 2.13l2.53 1.49c.2.08 2.81-.11 4.52.03 2.15.17 3.82.98 4.69 2.24 1.17 1.66-.25 3.44-.25 3.44.31-.16 2.74-1.7 2.57-4.16-.16-2.36-2.2-4.57-9.77-4.48 0-.02-2.08-1.23-2.08-1.23l-.61-.36-3.36-1.72s-2.73-.93-2.74-.93c0-.1-.64-1.2-.64-1.2-.89-1.6-2.12-3.18-3.18-4.58l-.33-.4s-1.86-2.57-2.08-2.89c.59-1.27.09-3.1.09-3.1s-.31.61-.83 1.26c-.52.66-1.89 1.75-2.85 2.27l-.51.33 6.87 9.38.71 1zm3.1-16.79c.42-1.51-.38-2.99-.38-2.99l-.41.96c-.34.83-1.25 1.78-2.66 2.69l-.42.23 5.55 7.94c0 .01.33.52.33.52l1.06 1.43c.14.14 2.32 1.37 2.32 1.37l.82.46 2.5 1.49 2.29 1.53.17.05 3.42.22c2.06.17 3.26.94 3.88 1.38 2.16 1.56 1 3.89 1 3.89s2.89-2.73.99-5.68c-.71-1.02-1.69-2-4.57-2.33l-3.53-.49c0-.03-1.9-1.31-1.9-1.31l-2.48-1.54-.64-.38-2.04-.89-5.3-8.55zM47.91 10.83c.18.18.76.76.76.77l2.8 2.56c0 .02 1.6 1.51 1.6 1.51 1.18 1.13 1.46 1.71 1.42 1.94-.05.22-.27.32-.48.44-.21.12-.54.2-.54.2l-.13 1.06.66-.03c3.69-.09 7.16 2.41 9.41 4.53 3.9 3.72 6.85 9.75 7.5 15.38l3.05 15.86 1.15 2.44.22.5.5 1.04c.43 1.03 1.1 1.95 1.16 2.01.07.07 1.58 1.27 1.58 1.27l2.2 2.25.65.7 1.05 1.05c.08.06 3.19.46 3.19.46 5.41.9 5.17 3.9 5.17 3.9s3.22-4.94-4.46-6.67c0 0-2.42-.46-2.47-.46v-.01c0-.06-.86-1.23-.86-1.23-.1-.11-.29-.32-.29-.32-.05-.06-2.34-2.32-2.34-2.32l-1.05-1c0-.02-.96-2.57-.96-2.57l-1.36-3.29c-.35-1.01-.57-2.63-.88-4.86-.02-.09-.24-1.61-.24-1.61l-1.01-6.65c.01-.11.23-1.3.23-1.3.44-2.49 1.37-5.25 2.78-8.21 1.69-3.55 5.17-5.89 5.22-5.91 2.6-1.61 6.41-2.5 8.46-2.89.78-.08 1.03-.54 1.17-1l.09-.27-.26-.04c-1.13-.21-2.44-.59-2.54-.8-.02-.04-.04-.13-.04-.2 0-.2.15-.52.42-.93.01 0 1.67-1.6 1.67-1.6l.97-.96s4.06-3.93 4.6-4.45l-3.77-1.27c-.5.51-4.17 4.32-4.17 4.32-2.76 2.96-5.87 6.31-7.3 6.9-3.5 1.43-7.09 4.85-8.51 8.13 0 .01-.62 1.62-.96 2.5-1.06-3.06-2.39-5.59-4.2-7.8-1.98-2.37-4.4-4.15-7.41-5.37-1.63-1.55-7-6.46-9.91-8.85l-3.54 1.15zm14.33 80.05c-4.93 2.51-7.66.33-6.46-2.31 1.61 1.08 4.1 1.87 6.46 2.31zm-8.46-3.75c-3.36.92-4.6-1.44-3.81-3.36.64.74 3.01 2.87 3.81 3.36zm-30.2-60.11c.26.18.92.66.92.66.09.06 4.26 3.52 4.88 4.04-.1.27-1.82 5.02-1.82 5.02-1.57 3.96-3.15 7.95-3.24 11.1l.03.51c.01.07 1.36 7.13 1.36 7.13l.1.52c.76 3.71 1.62 7.93 1.98 10.96.08.86.29 1.38.62 1.58 2.06 2.14 5.42 6.49 9.48 14.79.12.22.18.35.24.44.39 1.14.88 1.91 1.46 2.28.74.46 2.15.49 3.07 0 2.08-1.36 3.55-3.27 4.46-5.58.32.38 1.18 1.51 1.32 1.67-3.5 6.06 2.69 8.3 4.88 7.44-1.27 3.67 3.42 6.62 7.83 4.66.57 2.38 2.46 3.08 4.26 3.42 1.79.36 4.22.55 8.2.19 5.98-.49 11.41-2.32 13.59-3.45 4.61-2.35 7.12-5.34 8.6-7.44.02-.05.29-.37.47-.62.49.87 1 1.68 1.58 2.3 1.47 1.44 2.85 2.08 3.98 1.88.8-.15 1.43-.64 1.85-1.56 2.05-4.93 6.52-11.01 10.02-15.08 0-.01.33-.65.33-.65.77-2.89 3.49-10.05 4.94-13.92l1.03-2.78c0-.02.2-.67.2-.67.07-1.11.11-2.22.11-3.31 0-4.98-.72-9.74-2.09-13.76-.67-2.04-1.35-3.27-1.99-4.47l-.74-1.35c1-1.48 3.9-3.44 6.23-5.01 0 0 .13-.08.18-.1l-2.86-3.13c-.18.12-2 1.38-2 1.38-2.08 1.42-4.18 1.99-5.49 1.47-.19-.07-1.92-1.05-1.92-1.05-.1-.07-.41-.21-.41-.21-.06-.01-.59-.08-.59-.08-.07 0-.64.13-.64.13l-.38.09.59.68c1.22 1.45 1.85 2.69 2.73 4.38.02.04.53.99.53.99l.5 1.17.1.24.66 1.7.12.36.36.98 1.38 4.84c1.17 4.93 1.76 8.99 1.79 12.46 0 .05-.05.4-.05.4-.01.02-1.62 4.56-1.62 4.56-1.67 4.72-3.76 10.59-4.23 13.01l-.1.29c-4.47 4.66-7.64 10.16-8.99 13.44-.21.43-.36.49-.42.5-.21.04-.73-.44-1.01-.7-1.12-1.01-1.79-3.11-1.71-5.34.11-2.72 1.28-5.15 3.24-6.68.32-.24.2-.69.13-.95-.54-3.1.33-7.85 2.25-9.2l.49-.36-.48-.37c-5.48-4.25-8.16-12.1-8.39-17.96l-.03-.77-.85.36c-.1.08-.42.58-.42.58-.22 1.14-.31 2.3-.31 3.42 0 3.01.58 5.64.82 6.58.76 3.24 2.36 6.23 4.71 8.93l.1.12c-1.02 1.28-1.47 4.4-1.47 6.8 0 .74.04 1.37.13 1.89-2.56 2.21-3.27 5.02-3.41 7.01 0 0 .08 2.12.08 2.14-.03-.05-1.25 1.58-1.25 1.58l-.24.35c-2.43 3.35-4.14 5.69-8.21 7.78-4.44 2.3-13.02 3.89-18.6 3.34-2.05-.23-1.83-2.07-1.83-2.16 0-.25.09-.52.28-.76 0 0 .41-.44.53-.57 5.28.6 10.31-.04 12.4-1.15.09-.08.73-1.04.73-1.04l.25-.45-.51.12c-4.49 1.13-13.4-.35-18.12-2.35-5.24-2.24-6.84-4.36-11.13-10.02l-1.2-1.57c-.04-1.58-.47-3.19-1.23-4.55-.72-1.27-1.67-2.08-1.95-2.3.32-.95.51-2.27.51-3.67 0-1.9-.35-3.82-1.01-4.89 3.19-2.49 4.8-5.05 4.76-7.99-.03-1.39-.79-3.51-.79-3.51L47 47.58l.08.81c.49 4.97-4.14 8.19-7.21 10.34 0 .01-.9.62-.9.62l.59.37c2.4 1.5 2.44 6.55 1.89 9.39l-.03.16.13.23.14.07c-.02-.01 1.15.93 1.15.93 2.42 3.25 2.22 8.28-.44 11.25-.54.56-.83.63-.98.62-.4-.08-.71-1.01-.8-1.32-.02-.04-.75-1.56-.75-1.56-2.09-4.36-3.85-8.02-7.92-12.88 0-.01-.1-.39-.1-.39-.79-6.37-1.78-11.09-2.75-15.64l-.53-2.47c0-.01-.06-.64-.06-.64.29-4.84 1.79-8.64 3.54-13.04l1.06-2.75.88-2.1c.01 0 .16-.31.16-.31 1.03-1.47 2.42-2.87 4.1-4.16l.75-.56-.98-.41s-1.9.21-3.81 1.15l-.34.16c-1.4.65-3 1.16-4.21.69 0 0-3.21-1.91-3.37-2l-2.71 2.88z"/>
  </defs>
  <use fill="#0076C0" xlink:href="#a" overflow="visible"/>
</svg>
