<?xml version="1.0" encoding="UTF-8" standalone="no"?>
<svg
   xmlns:dc="http://purl.org/dc/elements/1.1/"
   xmlns:cc="http://creativecommons.org/ns#"
   xmlns:rdf="http://www.w3.org/1999/02/22-rdf-syntax-ns#"
   xmlns:svg="http://www.w3.org/2000/svg"
   xmlns="http://www.w3.org/2000/svg"
   xmlns:sodipodi="http://sodipodi.sourceforge.net/DTD/sodipodi-0.dtd"
   xmlns:inkscape="http://www.inkscape.org/namespaces/inkscape"
   width="61.999992mm"
   height="13.838521mm"
   viewBox="0 0 61.999992 13.838521"
   version="1.1"
   id="svg8"
   sodipodi:docname="geico.svg"
   inkscape:version="1.0.2 (e86c870879, 2021-01-15)">
  <sodipodi:namedview
     pagecolor="#ffffff"
     bordercolor="#666666"
     borderopacity="1"
     objecttolerance="10"
     gridtolerance="10"
     guidetolerance="10"
     inkscape:pageopacity="0"
     inkscape:pageshadow="2"
     inkscape:window-width="1920"
     inkscape:window-height="1000"
     id="namedview844"
     showgrid="false"
     fit-margin-top="0"
     fit-margin-left="0"
     fit-margin-right="0"
     fit-margin-bottom="0"
     inkscape:zoom="0.65477694"
     inkscape:cx="114.01573"
     inkscape:cy="27.411367"
     inkscape:window-x="0"
     inkscape:window-y="0"
     inkscape:window-maximized="1"
     inkscape:current-layer="svg8" />
  <defs
     id="defs2" />
  <metadata
     id="metadata5">
    <rdf:RDF>
      <cc:Work
         rdf:about="">
        <dc:format>image/svg+xml</dc:format>
        <dc:type
           rdf:resource="http://purl.org/dc/dcmitype/StillImage" />
        <dc:title></dc:title>
      </cc:Work>
    </rdf:RDF>
  </metadata>
  <g
     id="layer1"
     transform="translate(-74.833337,-141.24741)">
    <g
       id="g903"
       transform="matrix(0.03527778,0,0,-0.03527778,74.833337,155.08593)">
      <path
         d="m 0,280.332 c 0,90.102 50.9688,111.941 135.609,111.941 h 141.985 c 107.394,0 121.957,-39.132 121.957,-99.203 v -9.101 h -92.832 c 0,30.035 -17.289,33.676 -47.328,33.676 H 156.543 c -47.324,0 -59.1602,-10.922 -59.1602,-63.711 v -38.227 c 0,-52.785 11.8362,-63.703 59.1602,-63.703 h 101.023 c 24.579,0 49.153,3.637 49.153,32.758 v 9.101 H 189.313 v 63.715 h 212.058 v -87.379 c 0,-88.281 -46.414,-92.8318 -151.992,-92.8318 H 135.609 C 50.9688,77.3672 0,99.2109 0,189.316 v 91.016 0"
         style="fill:#1a5dad;fill-opacity:1;fill-rule:evenodd;stroke:none"
         id="path905" />
      <path
         d="M 424.125,388.637 H 760.879 V 317.645 H 518.777 v -50.063 h 229.36 V 203.879 H 518.777 V 154.73 H 766.34 V 81.0117 H 424.125 v 307.6253 0"
         style="fill:#1a5dad;fill-opacity:1;fill-rule:evenodd;stroke:none"
         id="path907" />
      <path
         d="m 794.551,388.637 h 94.66 V 81.0117 h -94.66 v 307.6253 0"
         style="fill:#1a5dad;fill-opacity:1;fill-rule:evenodd;stroke:none"
         id="path909" />
      <path
         d="m 917.422,280.332 c 0,90.102 50.969,111.941 135.608,111.941 h 111.04 c 133.79,0 151.09,-29.121 150.17,-116.496 h -93.74 v 9.102 c 0,21.844 -16.38,28.211 -44.6,28.211 h -102.84 c -49.15,0 -58.26,-23.66 -58.26,-61.883 v -32.769 c 0,-44.594 9.11,-61.891 53.71,-61.891 h 100.11 c 42.78,0 55.52,4.551 55.52,42.777 h 94.66 v -29.125 c 0,-51.875 -19.12,-92.8318 -113.77,-92.8318 h -152 c -84.639,0 -135.608,21.8437 -135.608,111.9488 v 91.016 0"
         style="fill:#1a5dad;fill-opacity:1;fill-rule:evenodd;stroke:none"
         id="path911" />
      <path
         d="m 1431.65,218.438 c 0,-44.594 9.1,-61.891 53.7,-61.891 h 121.05 c 44.6,0 53.7,17.297 53.7,61.891 v 32.769 c 0,38.223 -9.1,61.883 -59.16,61.883 h -110.13 c -50.06,0 -59.16,-23.66 -59.16,-61.883 z m -96.47,61.894 c 0,90.102 50.05,111.941 135.61,111.941 h 151.08 c 84.64,0 135.61,-21.839 135.61,-111.941 v -91.016 c 0,-90.1051 -50.97,-111.9488 -135.61,-111.9488 h -151.08 c -85.56,0 -135.61,21.8437 -135.61,111.9488 v 91.016 0"
         style="fill:#1a5dad;fill-opacity:1;fill-rule:evenodd;stroke:none"
         id="path913" />
      <path
         d="m 1705.61,43.6914 v 14.5664 h 10.01 c 7.28,0 10.01,-1.8242 10.01,-7.2851 0,-4.5508 -2.73,-7.2813 -8.19,-7.2813 z m -7.29,20.9336 V 17.3008 h 7.29 v 20.9297 h 8.18 l 12.74,-20.9297 h 8.2 l -13.66,20.9297 c 8.2,0.9101 12.75,5.4609 12.75,13.6523 0,8.1914 -6.38,12.7422 -17.3,12.7422 z m 14.56,10.0117 c 0.91,0 0.91,0 1.83,0 18.2,0 32.76,-14.5625 32.76,-33.6758 0,-19.1093 -14.56,-33.67574 -32.76,-33.67574 -19.11,0 -33.68,14.56644 -33.68,33.67574 0,19.1133 13.66,33.6758 31.85,33.6758 z m 1.83,7.2813 c -23.67,0 -41.87,-18.2032 -41.87,-40.9571 C 1672.84,18.207 1691.04,0 1714.71,0 c 22.75,0 40.95,18.207 40.95,40.9609 0,22.7539 -18.2,40.9571 -40.95,40.9571 v 0 0"
         style="fill:#1a5dad;fill-opacity:1;fill-rule:evenodd;stroke:none"
         id="path915" />
    </g>
  </g>
</svg>
